<svg viewBox="0 0 322.5 335" xmlns="http://www.w3.org/2000/svg"><path d="m286.9 135.7h-174.6l48.5-48.5c12.4-12.4 12.4-32.5 0-45-12.4-12.4-32.5-12.4-45 0l-102.7 102.8s-.1.2-.2.3c-1.4 1.4-2.6 2.9-3.7 4.6-.5.8-.9 1.7-1.4 2.6-.5 1-1.1 1.9-1.5 2.9-.4 1.1-.7 2.2-1 3.3-.3.9-.6 1.7-.8 2.6-.8 4.1-.8 8.3 0 12.5.2.9.5 1.8.8 2.7.3 1.1.6 2.2 1 3.2.4 1.1 1 2 1.6 3 .4.8.8 1.7 1.3 2.4 1.2 1.7 2.5 3.4 4 4.9l102.8 102.8c6.2 6.2 14.3 9.3 22.5 9.3s16.3-3.1 22.5-9.3c12.4-12.4 12.4-32.5 0-45l-48.5-48.5h174.6c17.6 0 31.8-14.2 31.8-31.8s-14.2-31.8-31.8-31.8z" fill="#fff"/></svg>