<svg viewBox="0 0 147 89" xmlns="http://www.w3.org/2000/svg" xmlns:xlink="http://www.w3.org/1999/xlink"><clipPath id="a"><path d="m0 0h147v89h-147z"/></clipPath><g clip-path="url(#a)"><path d="m15.3 47.8h-9.5c-2.9 0-5.2-2.3-5.2-5.2s2.3-5.2 5.2-5.2h9.5c7.2 0 13-5.8 13-13s-5.8-13-13-13h-9.5c-2.9 0-5.2-2.3-5.2-5.2s2.3-5.1 5.2-5.1h9.5c12.9 0 23.4 10.5 23.4 23.3s-10.5 23.3-23.4 23.3z" fill="#39b8c1"/><path d="m15.3 47.8h-9.5c-2.9 0-5.2-2.3-5.2-5.2s2.3-5.2 5.2-5.2h9.5c7.2 0 13-5.8 13-13s-5.8-13-13-13h-9.5c-2.9 0-5.2-2.3-5.2-5.2s2.3-5.1 5.2-5.1h9.5c12.9 0 23.4 10.5 23.4 23.3s-10.5 23.3-23.4 23.3z" fill="none" stroke="#2f9096" stroke-miterlimit="10" stroke-width="1.7"/><path d="m94.6.8c-2.4 0-4.7.5-6.8 1.5-.9-1-2.3-1.7-3.8-1.7-2.9 0-5.2 2.3-5.2 5.2v37.2c0 2.9 2.3 5.2 5.2 5.2s5.2-2.3 5.2-5.2v-26.5c0-3 2.4-5.4 5.4-5.4s5.4 2.4 5.4 5.4v26.5c0 2.9 2.3 5.2 5.2 5.2s5.2-2.3 5.2-5.2v-26.5c0-8.7-7.1-15.7-15.8-15.7z" fill="#e84678"/><path d="m94.6.8c-2.4 0-4.7.5-6.8 1.5-.9-1-2.3-1.7-3.8-1.7-2.9 0-5.2 2.3-5.2 5.2v37.2c0 2.9 2.3 5.2 5.2 5.2s5.2-2.3 5.2-5.2v-26.5c0-3 2.4-5.4 5.4-5.4s5.4 2.4 5.4 5.4v26.5c0 2.9 2.3 5.2 5.2 5.2s5.2-2.3 5.2-5.2v-26.5c0-8.7-7.1-15.7-15.8-15.7z" fill="none" stroke="#b3395e" stroke-miterlimit="10" stroke-width="1.7"/><path d="m130.6.8c-8.7 0-15.8 7.1-15.8 15.7v26.5c0 2.9 2.3 5.2 5.2 5.2s5.2-2.3 5.2-5.2v-14h10.8v14c0 2.9 2.3 5.2 5.2 5.2s5.2-2.3 5.2-5.2v-26.5c0-8.7-7.1-15.7-15.8-15.7zm-5.4 17.8v-2.1c0-3 2.4-5.4 5.4-5.4s5.4 2.4 5.4 5.4v2.1z" fill="#fbcf63"/><path d="m130.6.8c-8.7 0-15.8 7.1-15.8 15.7v26.5c0 2.9 2.3 5.2 5.2 5.2s5.2-2.3 5.2-5.2v-14h10.8v14c0 2.9 2.3 5.2 5.2 5.2s5.2-2.3 5.2-5.2v-26.5c0-8.7-7.1-15.7-15.8-15.7zm-5.4 17.8v-2.1c0-3 2.4-5.4 5.4-5.4s5.4 2.4 5.4 5.4v2.1z" fill="none" stroke="#c0a04d" stroke-miterlimit="10" stroke-width="1.7"/><path d="m68.6.8c-2.9 0-5.2 2.3-5.2 5.2v16.1c0 3-2.4 5.4-5.4 5.4s-5.4-2.4-5.4-5.4v-16.2c0-2.9-2.3-5.2-5.2-5.2s-5.2 2.3-5.2 5.2v16.1c0 6.9 4.4 12.7 10.6 14.9v6c0 2.9 2.3 5.2 5.2 5.2s5.2-2.3 5.2-5.2v-6c6.2-2.1 10.6-8 10.6-14.9v-16.1c0-2.9-2.3-5.2-5.2-5.2z" fill="#ef775a"/><path d="m68.6.8c-2.9 0-5.2 2.3-5.2 5.2v16.1c0 3-2.4 5.4-5.4 5.4s-5.4-2.4-5.4-5.4v-16.2c0-2.9-2.3-5.2-5.2-5.2s-5.2 2.3-5.2 5.2v16.1c0 6.9 4.4 12.7 10.6 14.9v6c0 2.9 2.3 5.2 5.2 5.2s5.2-2.3 5.2-5.2v-6c6.2-2.1 10.6-8 10.6-14.9v-16.1c0-2.9-2.3-5.2-5.2-5.2z" fill="none" stroke="#b95e47" stroke-miterlimit="10" stroke-width="1.7"/><path d="m14.5 29.3c2.8 0 5.2-2.3 5.2-5.1s-2.3-5.1-5.2-5.1-5.2 2.3-5.2 5.1 2.3 5.1 5.2 5.1z" fill="#39b8c1"/><path d="m14.5 29.3c2.8 0 5.2-2.3 5.2-5.1s-2.3-5.1-5.2-5.1-5.2 2.3-5.2 5.1 2.3 5.1 5.2 5.1z" fill="none" stroke="#2f9096" stroke-miterlimit="10" stroke-width="1.7"/><path d="m146.2 79.4c-.3-.3-.6-.4-.8-.4s-.4 0-.5.2c-2 1.9-3.4 3-4.1 3.1 0 0-.2 0-.4 0-.7 0-1.1-.4-1.1-1.2 0-1.1.4-2.7 1.1-4.8s1.1-3.5 1.1-4.4c0-1.3-.7-2-2-2-2.5 0-4.9 3-7.2 9.1 1-3.8 1.4-6.3 1.4-7.7s-.2-.7-.5-1c-.3-.2-.7-.4-1.1-.4-1 0-2.1.8-3.4 2.3-1.3 1.6-2.6 4-4 7.3.4-3.1.9-5.9 1.7-8.3 0 0 0-.3 0-.5s-.1-.4-.4-.6c-.2-.2-.5-.3-.8-.3-.8 0-1.4.5-1.7 1.5s-.6 2.1-.9 3.1c-1.3 1-2.4 1.3-3.9 1.6.1-.7.2-1.1.2-1.4 0-1.4-.4-2.5-1.3-3.4-.8-.9-1.9-1.3-3.2-1.3-2.2 0-4 .9-5.6 2.8-.6.7-1.1 1.4-1.4 2.2-.9.6-1.9 1-2.8 1.2.1-.7.2-1.1.2-1.4 0-1.4-.4-2.5-1.3-3.4-.8-.9-1.9-1.3-3.2-1.3-2.2 0-4 .9-5.6 2.8-.6.7-1.1 1.5-1.5 2.3-1.1.6-2 .9-2.5.9s-1-.2-1-.7.2-.7.5-1.5c.3-.9.5-1.6.5-2.3 0-1-.7-1.5-2-1.5s-2.1 1.1-3.6 3.3c-1.4 2-2.3 3.8-2.9 5.5l1.7-7.5c0-.4-.1-.7-.4-.9-.2-.2-.6-.4-.9-.4-1 0-1.7.7-2.2 2-.8 2.7-1.2 5.4-1.3 8.2-1 .9-1.9 1.5-2.8 1.8.3-.5.5-1.2.5-1.9s-.3-1.6-1-2.6c-.6-1-1.3-1.9-2-2.7s-1-1.4-1-1.7 0-.6.3-.9c.2-.3.3-.7.3-1.1s-.2-.8-.5-1.1-.7-.4-1.1-.4c-.9 0-1.6.5-2.1 1.4-2.1 4.2-3.7 7.5-5 9.7-.5.6-1 1-1.5 1.2.3-.5.5-1.2.5-1.9s-.3-1.6-1-2.6c-.6-1-1.3-1.9-2-2.7s-1-1.4-1-1.7 0-.6.3-.9c.2-.3.3-.7.3-1.1s-.2-.8-.5-1.1-.7-.4-1.1-.4c-.9 0-1.6.5-2.1 1.4-1.8 3.8-3.4 6.8-4.6 9-1.1 1.1-2 1.7-2.9 1.7s-.8-.4-.8-1.1 0-.4 0-.5l1.3-7.7v-.3c0-.8-.4-1.2-1.3-1.2h-1v-.3c0-.6-.6-.9-1.8-.9-2.2 0-4.2 1-6.2 3.2-1.8 1.9-2.7 4.1-2.9 6.5-1.6 1.7-3.2 2.6-4.5 2.6s-2.2-1.2-2.2-3.6 0-1.2.2-2.2c2.6-2 5-4.7 7.1-8 2.2-3.3 3.4-6.4 3.7-9.5v-.4c0-.9-.3-1.6-.8-2.2s-1.3-.9-2.2-.9c-1.5 0-3 .7-4.4 2.2s-2.5 3.3-3.5 5.6c-1.9 4.7-3 9.1-3.4 13.4-1.8 2.4-5.2 5.8-7 7-2.1 1.4-4.5 2-7.1 2s-4.6-.9-6-2.7-2.1-4.5-2.1-7.9 1.3-8.5 4-11.9 5.6-5 8.9-5 2.4.3 3.2.9 1.1 1.6 1.1 2.9-.5 2.5-1.5 3.5-2.4 1.8-4.1 2.2c-1.1.3-1.8.6-2.1.8-.3.3-.5.6-.5.9 0 .9.5 1.3 1.7 1.3s.5 0 .9 0c2.7-.5 4.8-1.6 6.5-3.3s2.5-3.6 2.5-5.8-.7-3.9-2-5.1-3.1-1.8-5.3-1.8-4.4.5-6.5 1.5-4 2.4-5.6 4.2-2.9 4-4 6.6c-1 2.6-1.5 5.4-1.5 8.4 0 4.5 1.1 7.8 3.3 10.1s4.9 3.4 8.1 3.4 6.3-.9 9.1-2.6c1.7-1 4.1-3.3 6-5.6.2.9.5 1.6.9 2.2.8 1.2 2 1.8 3.5 1.8 2 0 3.9-.8 5.7-2.3.2.4.3.7.6 1 .7.9 1.7 1.4 2.9 1.4s2.2-.3 3.1-.8c.8-.5 1.5-1.3 2-2.2.1.8.4 1.5 1 2s1.3.8 2.3.8 2.1-.4 3.2-1.2c.3-.2.5-.4.8-.6.4.3.9.7 1.4.9 1.4.7 3 1.1 4.9 1.1 2.5 0 4.6-.4 6.3-1.2.3-.2.6-.3.9-.5.3.2.7.5 1.1.7 1.4.7 3 1.1 4.9 1.1 2.5 0 4.6-.4 6.3-1.2l.6-.3c.3.9.8 1.3 1.6 1.3s1.5-.4 1.9-1.2c1.3-3.7 2.7-6.7 4.1-9 .4-.7.7-1.1.7-1.1-.5 1.9-.7 2.9-.7 2.9 0 1.7 1 2.6 3.1 2.6s1.6-.2 2.4-.5v.8c0 1.6.5 3 1.4 4 1 1.1 2.2 1.6 3.7 1.6 3.5 0 5.8-2 6.7-6 .8-.2 1.6-.5 2.4-.9v1.2c0 1.6.5 3 1.4 4 1 1.1 2.2 1.6 3.7 1.6 3.5 0 5.8-2 6.7-6 1.5-.4 2.7-.8 3.7-1.4-.2 1.4-.3 2.9-.3 4.3s.6 2.8 1.8 2.8.6 0 .8 0 .4-.3.8-.7c.3-.4.7-1 1.1-1.8 1.5-3 3.1-5.8 4.9-8.3-1.1 4.2-1.7 7.1-1.7 8.6s0 0 0 0c0 1.6.6 2.3 1.8 2.3s1.2-.5 1.7-1.5c2.4-5.4 4.3-8.6 5.6-9.7-1.2 3.8-1.9 6.4-2 7.8v.4c0 .9.3 1.6.8 2.2s1.3.9 2.2.9c1 0 2.2-.4 3.6-1.2s2.6-1.9 3.5-3.2c0-.1 0-.3 0-.4s-.2-.4-.5-.6zm-113.3-15.6c1.3-3.2 2.5-4.8 3.8-4.8s.8.3.8.9c0 1.7-.8 3.8-2.3 6.3s-3.1 4.7-4.9 6.7c.4-2.9 1.3-5.9 2.6-9.1zm12.3 13.7c-.3 1.1-.8 2.1-1.5 3s-1.5 1.3-2.3 1.3c-1.1 0-1.7-.7-1.7-2.2s.7-3 2.1-4.7c1.4-1.6 2.9-2.5 4.7-2.5l-1.2 5zm12.9 4.9h-.2c-.7 0-1.6-.4-2.7-1.2l3-6c1.4 2.1 2.2 3.9 2.2 5.2s-.8 2-2.2 2zm13.1 0h-.2c-.7 0-1.6-.4-2.7-1.2l3-6c1.4 2.1 2.2 3.9 2.2 5.2s-.8 2-2.2 2zm29-1.6c-.7.9-1.4 1.3-2.2 1.3-1.5 0-2.3-1-2.3-3s.4-2.8 1.2-4.1 1.8-2 2.9-2 .5 0 .7.3c.2.2.3.5.3.8-.8.8-1.2 1.5-1.2 2.2s.5 1.4 1.7 1.8c0 .9-.5 1.7-1.1 2.6zm14.1 0c-.7.9-1.4 1.3-2.2 1.3-1.5 0-2.3-1-2.3-3s.4-2.8 1.2-4.1 1.8-2 2.9-2 .5 0 .7.3c.2.2.3.5.3.8-.8.8-1.2 1.5-1.2 2.2s.5 1.4 1.7 1.8c0 .9-.5 1.7-1.1 2.6z" fill="#39b8c1"/></g></svg>