<svg viewBox="0 0 1280 1280" xmlns="http://www.w3.org/2000/svg"><path d="m1273.5 550.1c-26.1-182-127.3-342.1-280.5-443.6-89-59.1-189.5-94.2-297.5-104-16.1-1.5-71.3-2.7-85.5-1.9-119.6 6.9-226.8 42.1-323 105.9-153.2 101.5-254.4 261.6-280.5 443.6-4.8 33.6-5.8 49.7-5.8 89.9s1 56.3 5.8 89.9c26.1 182 127.3 342.1 280.5 443.6 89.4 59.3 188.4 93.8 298.5 104.2 25.1 2.4 83.9 2.4 109 0 110.1-10.4 209.1-44.9 298.5-104.2 153.2-101.5 254.4-261.6 280.5-443.6 4.8-33.6 5.8-49.7 5.8-89.9s-1-56.3-5.8-89.9zm-558.6 594.3c-29.5 4.4-39.9 5.1-74.9 5.1s-45.4-.7-74.9-5.1c-132.4-19.7-250.5-89.6-331.7-196.5-51.6-68-85.2-147.9-97.8-233-4.4-29.5-5.1-39.9-5.1-74.9s.7-45.4 5.1-74.9c11-73.8 37.2-142.6 78.1-205 4.6-7.1 11.8-17.2 18.1-25.8l713.8 713.8c-7.6 5.6-16.1 11.8-21.6 15.5-63.6 42.4-133.8 69.5-209.1 80.7zm429.5-429.5c-10.8 72.7-36.4 140.5-76.2 202.1l-705.2-705.2c48-30.9 99.7-53.2 155.5-67.2 28-6.9 53.4-10.8 92.5-14 10.9-.9 67.3.4 80.2 1.8 33.5 3.8 61.2 9.2 90.6 17.7 105.6 30.6 198 94.1 264.8 182 51.6 68 85.2 147.9 97.8 233 4.4 29.5 5.1 39.9 5.1 74.9s-.7 45.4-5.1 74.9z" fill="#f00"/></svg>