<svg width="147" height="89" viewBox="0 0 147 89" fill="none" xmlns="http://www.w3.org/2000/svg">
<g clip-path="url(#clip0_1_3)">
<path d="M15.2898 47.7898H5.78552C2.91033 47.7898 0.5905 45.468 0.5905 42.6061C0.5905 39.7442 2.91736 37.4224 5.78552 37.4224H15.2898C22.4602 37.4224 28.2949 31.6003 28.2949 24.4455C28.2949 17.2907 22.4602 11.4687 15.2898 11.4687H5.78552C2.91033 11.4687 0.5905 9.14691 0.5905 6.28499C0.5905 3.42308 2.91736 1.10829 5.78552 1.10829H15.2898C28.1895 1.10829 38.6849 11.5809 38.6849 24.4526C38.6849 37.3242 28.1895 47.7968 15.2898 47.7968V47.7898Z" fill="#39B8C1"/>
<path d="M15.2898 47.7898H5.78552C2.91033 47.7898 0.5905 45.468 0.5905 42.6061C0.5905 39.7442 2.91736 37.4224 5.78552 37.4224H15.2898C22.4602 37.4224 28.2949 31.6003 28.2949 24.4455C28.2949 17.2907 22.4602 11.4687 15.2898 11.4687H5.78552C2.91033 11.4687 0.5905 9.14691 0.5905 6.28499C0.5905 3.42308 2.91736 1.10829 5.78552 1.10829H15.2898C28.1895 1.10829 38.6849 11.5809 38.6849 24.4526C38.6849 37.3242 28.1895 47.7968 15.2898 47.7968V47.7898Z" stroke="#2F9096" stroke-width="1.68" stroke-miterlimit="10"/>
<path d="M94.628 0.757566C92.2098 0.757566 89.9181 1.29768 87.8724 2.2727C86.9234 1.24157 85.5526 0.589218 84.0412 0.589218C81.173 0.589218 78.8462 2.91102 78.8462 5.77293V42.9708C78.8462 45.8398 81.173 48.1546 84.0412 48.1546C86.9093 48.1546 89.2362 45.8328 89.2362 42.9708V16.5051C89.2362 13.538 91.6544 11.125 94.628 11.125C97.6016 11.125 100.02 13.538 100.02 16.5051V42.9708C100.02 45.8398 102.347 48.1546 105.215 48.1546C108.083 48.1546 110.41 45.8328 110.41 42.9708V16.5051C110.41 7.82117 103.331 0.757566 94.628 0.757566Z" fill="#E84678"/>
<path d="M94.628 0.757566C92.2098 0.757566 89.9181 1.29768 87.8724 2.2727C86.9234 1.24157 85.5526 0.589218 84.0412 0.589218C81.173 0.589218 78.8462 2.91102 78.8462 5.77293V42.9708C78.8462 45.8398 81.173 48.1546 84.0412 48.1546C86.9093 48.1546 89.2362 45.8328 89.2362 42.9708V16.5051C89.2362 13.538 91.6544 11.125 94.628 11.125C97.6016 11.125 100.02 13.538 100.02 16.5051V42.9708C100.02 45.8398 102.347 48.1546 105.215 48.1546C108.083 48.1546 110.41 45.8328 110.41 42.9708V16.5051C110.41 7.82117 103.331 0.757566 94.628 0.757566ZM94.628 0.757566H94.6421" stroke="#B3395E" stroke-width="1.68" stroke-miterlimit="10"/>
<path d="M130.628 0.757568C121.932 0.757568 114.846 7.82117 114.846 16.5051V42.9708C114.846 45.8398 117.173 48.1546 120.041 48.1546C122.909 48.1546 125.236 45.8328 125.236 42.9708V28.9629H136.019V42.9708C136.019 45.8398 138.346 48.1546 141.214 48.1546C144.083 48.1546 146.409 45.8328 146.409 42.9708V16.5051C146.409 7.82117 139.33 0.757568 130.628 0.757568ZM125.243 18.5954V16.4981C125.243 13.531 127.661 11.118 130.635 11.118C133.608 11.118 136.026 13.531 136.026 16.4981V18.5954H125.243Z" fill="#FBCF63"/>
<path d="M130.628 0.757568C121.932 0.757568 114.846 7.82117 114.846 16.5051V42.9708C114.846 45.8398 117.173 48.1546 120.041 48.1546C122.909 48.1546 125.236 45.8328 125.236 42.9708V28.9629H136.019V42.9708C136.019 45.8398 138.346 48.1546 141.214 48.1546C144.083 48.1546 146.409 45.8328 146.409 42.9708V16.5051C146.409 7.82117 139.33 0.757568 130.628 0.757568ZM125.243 18.5954V16.4981C125.243 13.531 127.661 11.118 130.635 11.118C133.608 11.118 136.026 13.531 136.026 16.4981V18.5954H125.243Z" stroke="#C0A04D" stroke-width="1.68" stroke-miterlimit="10"/>
<path d="M68.5545 0.757564C65.6864 0.757564 63.3595 3.07936 63.3595 5.94128V22.0325C63.3595 24.9997 60.9413 27.4127 57.9677 27.4127C54.9941 27.4127 52.5758 24.9997 52.5758 22.0325V5.93427C52.5758 3.07235 50.249 0.750549 47.3808 0.750549C44.5127 0.750549 42.1858 3.07235 42.1858 5.93427V22.0255C42.1858 28.8927 46.6146 34.7428 52.7727 36.8893V42.9147C52.7727 45.7766 55.0995 48.0984 57.9677 48.0984C60.8358 48.0984 63.1627 45.7766 63.1627 42.9147V36.8893C69.3208 34.7428 73.7496 28.8927 73.7496 22.0255V5.93427C73.7496 3.07235 71.4227 0.750549 68.5545 0.750549H68.5405L68.5545 0.757564Z" fill="#EF775A"/>
<path d="M68.5545 0.757564C65.6864 0.757564 63.3595 3.07936 63.3595 5.94128V22.0325C63.3595 24.9997 60.9413 27.4127 57.9677 27.4127C54.9941 27.4127 52.5758 24.9997 52.5758 22.0325V5.93427C52.5758 3.07235 50.249 0.750549 47.3808 0.750549C44.5127 0.750549 42.1858 3.07235 42.1858 5.93427V22.0255C42.1858 28.8927 46.6146 34.7428 52.7727 36.8893V42.9147C52.7727 45.7766 55.0995 48.0984 57.9677 48.0984C60.8358 48.0984 63.1627 45.7766 63.1627 42.9147V36.8893C69.3208 34.7428 73.7496 28.8927 73.7496 22.0255V5.93427C73.7496 3.07235 71.4227 0.750549 68.5545 0.750549H68.5405L68.5545 0.757564Z" stroke="#B95E47" stroke-width="1.68" stroke-miterlimit="10"/>
<path d="M14.5095 29.2575C17.3566 29.2575 19.6623 26.9567 19.6623 24.1159C19.6623 21.275 17.3566 18.9742 14.5095 18.9742C11.6624 18.9742 9.35666 21.275 9.35666 24.1159C9.35666 26.9567 11.6624 29.2575 14.5095 29.2575Z" fill="#39B8C1"/>
<path d="M14.5095 29.2575C17.3553 29.2575 19.6623 26.9555 19.6623 24.1159C19.6623 21.2762 17.3553 18.9742 14.5095 18.9742C11.6637 18.9742 9.35666 21.2762 9.35666 24.1159C9.35666 26.9555 11.6637 29.2575 14.5095 29.2575Z" stroke="#2F9096" stroke-width="1.68" stroke-miterlimit="10"/>
<path d="M0.189804 75.5041C0.189804 72.5159 0.68892 69.7101 1.69418 67.0797C2.69944 64.4492 4.01401 62.2397 5.64492 60.451C7.27584 58.6623 9.14576 57.2453 11.2617 56.2142C13.3777 55.1831 15.5429 54.671 17.7713 54.671C19.9998 54.671 21.7853 55.2602 23.114 56.4387C24.4496 57.6171 25.1104 59.3076 25.1104 61.5031C25.1104 63.6987 24.2668 65.6347 22.5727 67.3112C20.8785 68.9806 18.7063 70.0749 16.042 70.5799C15.564 70.636 15.2476 70.6711 15.1 70.6711C13.9893 70.6711 13.441 70.2362 13.441 69.3734C13.441 69.0437 13.5956 68.7421 13.912 68.4756C14.2283 68.209 14.9383 67.9214 16.049 67.6268C17.7573 67.1498 19.121 66.3993 20.1614 65.3822C21.1948 64.3651 21.708 63.1936 21.708 61.8609C21.708 60.5281 21.3284 59.5742 20.5621 58.9709C19.7959 58.3747 18.7414 58.0731 17.3987 58.0731C14.1299 58.0731 11.1633 59.7565 8.48496 63.1165C5.80661 66.4764 4.46392 70.4256 4.46392 74.971C4.46392 78.38 5.15284 80.9964 6.53068 82.8342C7.90852 84.672 9.89795 85.5839 12.506 85.5839C15.1141 85.5839 17.469 84.9035 19.578 83.5427C21.6939 82.1819 26.0384 77.5523 27.4092 75.3989C27.5287 75.1884 27.7607 75.0832 28.1051 75.0832C28.4496 75.0832 28.8011 75.2165 29.1596 75.4901C29.5181 75.7566 29.7009 76.0021 29.7009 76.2126C29.7009 76.423 29.6728 76.5843 29.6095 76.7106C28.2879 79.5515 23.6131 84.7071 20.766 86.4187C17.9189 88.1372 14.875 88.993 11.6273 88.993C8.37951 88.993 5.65898 87.8566 3.47975 85.5839C1.29348 83.3182 0.203864 79.9583 0.203864 75.5041H0.189804Z" fill="#39B8C1"/>
<path d="M31.1771 84.8685C29.6798 84.8685 28.5269 84.2582 27.7185 83.0517C26.9101 81.8452 26.5094 80.1898 26.5094 78.0995C26.5094 77.4752 26.5234 76.9982 26.5515 76.6685C26.9452 72.3406 28.077 67.8232 29.968 63.1375C30.8959 60.8929 32.0488 59.034 33.4267 57.554C34.8045 56.0739 36.2526 55.3304 37.7851 55.3304C38.6779 55.3304 39.402 55.625 39.9433 56.2072C40.4846 56.7894 40.7517 57.5189 40.7517 58.3817V58.7394C40.4494 61.7627 39.2262 64.9052 37.0681 68.195C34.91 71.4778 32.5339 74.1363 29.9258 76.1705C29.8063 77.1315 29.7431 77.861 29.7431 78.366C29.7431 80.786 30.4601 81.9995 31.9012 81.9995C33.3423 81.9995 35.0576 80.9544 36.8853 78.864C37.0962 78.6536 37.3563 78.5484 37.6727 78.5484C37.989 78.5484 38.2843 78.6746 38.5725 78.9272C38.8537 79.1797 39.0013 79.4953 39.0013 79.8671C39.0013 80.2389 38.8185 80.6247 38.46 81.0105C36.1894 83.5848 33.7571 84.8685 31.1842 84.8685H31.1771ZM36.6604 59.013C35.402 59.013 34.1367 60.6123 32.8643 63.8039C31.5919 67.0025 30.7272 70.0328 30.2844 72.9017C32.0488 70.9306 33.6727 68.693 35.156 66.1818C36.6393 63.6706 37.3915 61.5803 37.4266 59.9109C37.4266 59.3146 37.1736 59.013 36.6604 59.013Z" fill="#39B8C1"/>
<path d="M36.344 80.0705C36.344 77.384 37.3071 74.985 39.2403 72.8737C41.1735 70.7623 43.2262 69.7171 45.4125 69.7171C46.6427 69.7171 47.2543 70.0328 47.2543 70.6571V70.9236H48.2876C49.1242 70.9236 49.546 71.3094 49.546 72.088V72.3546L48.2876 80.0635C48.2525 80.1828 48.2455 80.3441 48.2455 80.5545C48.2455 81.277 48.4985 81.6278 49.0117 81.6278C50.1505 81.6278 51.5003 80.6247 53.0538 78.6255C53.2647 78.359 53.4756 78.2187 53.6865 78.2187C53.9818 78.2187 54.2419 78.4502 54.4528 78.9131C54.6637 79.3761 54.7691 79.7829 54.7691 80.1196C54.7691 80.4563 54.734 80.7299 54.6777 80.9053C53.9888 81.8662 53.089 82.736 51.9783 83.5217C50.8676 84.3143 49.8201 84.7071 48.8149 84.7071C47.8096 84.7071 47.0293 84.4476 46.474 83.9215C45.9186 83.4024 45.5812 82.694 45.4687 81.7891V81.8803C44.9626 82.8413 44.2807 83.5848 43.4441 84.1249C42.5724 84.665 41.5461 84.9316 40.344 84.9316C39.1419 84.9316 38.1788 84.4827 37.4477 83.5638C36.7096 82.6519 36.3511 81.4805 36.3511 80.0425V80.0635L36.344 80.0705ZM41.4195 81.8171C42.228 81.8171 43.0012 81.3682 43.7323 80.4774C44.4634 79.5795 44.9625 78.5975 45.2367 77.5243L46.4458 72.5089C44.7095 72.5089 43.1559 73.3296 41.7781 74.978C40.4002 76.6264 39.7113 78.1766 39.7113 79.6356C39.7113 81.0947 40.2737 81.8312 41.4195 81.8312V81.8171Z" fill="#39B8C1"/>
<path d="M59.0221 84.9597C57.1663 84.9597 55.5424 84.5949 54.1505 83.8654C52.7586 83.1359 51.7955 82.217 51.2542 81.1087C52.5758 78.843 54.3192 75.462 56.5055 70.9798C56.9835 70.0538 57.6724 69.5909 58.5722 69.5909C59.0221 69.5909 59.4017 69.7312 59.7181 70.0188C60.0344 70.2993 60.1891 70.6711 60.1891 71.12C60.1891 71.5409 60.0977 71.8987 59.9219 72.1933C59.7392 72.4949 59.6548 72.7895 59.6548 73.0911C59.6548 73.3927 59.9852 73.9399 60.639 74.7465C61.2928 75.5532 61.9465 76.4511 62.5933 77.4331C63.24 78.4151 63.5563 79.2779 63.5563 80.0074C63.5563 80.7369 63.3947 81.3752 63.0572 81.9154C64.4351 81.4664 65.3068 79.5936 66.8604 77.6505C67.0431 77.4682 67.254 77.384 67.5141 77.384C67.7742 77.384 68.0554 77.5874 68.3647 77.9943C68.6811 78.4011 68.8357 78.7378 68.8357 79.0254C68.8357 79.313 68.7795 79.5655 68.653 79.811C67.7813 81.1508 67.0783 82.9184 65.3349 83.7391C63.5985 84.5598 61.4896 84.9667 59.001 84.9667H59.0081L59.0221 84.9597ZM57.9044 82.3994H58.0872C59.5775 82.3994 60.3367 81.726 60.3367 80.3792C60.3367 79.0324 59.6126 77.2998 58.1786 75.1814L55.219 81.1859C56.2665 81.9925 57.1663 82.3923 57.9114 82.3923L57.9044 82.3994Z" fill="#39B8C1"/>
<path d="M72.1327 84.9597C70.2768 84.9597 68.653 84.5949 67.2611 83.8654C65.8692 83.1359 64.9061 82.217 64.3648 81.1087C65.6864 78.843 67.4368 75.462 69.616 70.9798C70.0941 70.0538 70.783 69.5909 71.6828 69.5909C72.1327 69.5909 72.5123 69.7312 72.8286 70.0188C73.145 70.2993 73.2996 70.6711 73.2996 71.12C73.2996 71.5409 73.2083 71.8987 73.0325 72.1933C72.8497 72.4949 72.7654 72.7895 72.7654 73.0911C72.7654 73.3927 73.0958 73.9399 73.7496 74.7465C74.4033 75.5532 75.0571 76.4511 75.7038 77.4331C76.3506 78.4151 76.6669 79.2779 76.6669 80.0074C76.6669 80.7369 76.5052 81.3752 76.1678 81.9154C77.5456 81.4664 79.0149 80.274 80.5685 78.3309C80.7512 78.1486 80.9621 78.0644 81.2222 78.0644C81.4823 78.0644 81.7635 78.2678 82.0728 78.6747C82.3892 79.0815 82.5438 79.4182 82.5438 79.7058C82.5438 79.9934 82.4876 80.2459 82.361 80.4914C81.4894 81.8312 80.1888 82.9184 78.4525 83.7391C76.7161 84.5598 74.6072 84.9667 72.1257 84.9667L72.1327 84.9597ZM71.015 82.3994H71.1977C72.6881 82.3994 73.4473 81.726 73.4473 80.3792C73.4473 79.0324 72.7232 77.2998 71.2891 75.1814L68.3296 81.1859C69.377 81.9925 70.2768 82.3923 71.022 82.3923L71.015 82.3994Z" fill="#39B8C1"/>
<path d="M81.9744 79.0885C82.5157 77.384 83.521 75.448 85.0042 73.2595C86.4875 71.0779 87.6896 69.9907 88.6176 69.9907C89.9392 69.9907 90.5929 70.4957 90.5929 71.5128C90.5929 72.1722 90.4383 72.9228 90.1219 73.7785C89.8056 74.6343 89.6509 75.1464 89.6509 75.3217C89.6509 75.7706 89.9743 75.9951 90.6211 75.9951C91.2678 75.9951 92.3152 75.5672 93.7845 74.6974C93.8407 74.6694 93.9672 74.6553 94.143 74.6553C94.3187 74.6553 94.5507 74.8237 94.8389 75.1534C95.1201 75.4831 95.2677 75.7777 95.2677 76.0302C95.2677 76.2827 95.2115 76.4721 95.085 76.5913C93.2853 78.2047 91.5349 79.0113 89.8337 79.0113C87.7951 79.0113 86.7828 78.1415 86.7828 76.409C86.7828 76.3529 87.0218 75.3778 87.4998 73.4979C87.4647 73.4979 87.2327 73.8557 86.7828 74.5712C85.3698 76.907 83.999 79.9022 82.6493 83.5778C82.2626 84.3564 81.6159 84.7422 80.7161 84.7422C79.4859 84.7422 78.8743 83.7602 78.8743 81.7891V81.4313C78.8743 78.2047 79.3382 75.0552 80.2662 71.9758C80.7161 70.636 81.4331 69.9556 82.4243 69.9556C82.811 69.9556 83.1273 70.0749 83.3663 70.3134C83.6053 70.5519 83.7248 70.8535 83.7248 71.2112L81.9744 79.0955V79.0885Z" fill="#39B8C1"/>
<path d="M97.3345 84.9596C95.8372 84.9596 94.607 84.4195 93.6509 83.3463C92.6878 82.2731 92.2168 80.9263 92.2168 79.313C92.2168 76.8649 93.0182 74.6904 94.621 72.7965C96.2238 70.9026 98.1008 69.9556 100.259 69.9556C101.517 69.9556 102.572 70.4046 103.422 71.2954C104.273 72.1933 104.702 73.3296 104.702 74.6974C104.702 74.9991 104.646 75.476 104.519 76.1284C106.466 75.7706 108.392 74.5151 110.312 72.3616C110.431 72.2424 110.586 72.1792 110.783 72.1792C110.979 72.1792 111.176 72.3265 111.394 72.6071C111.605 72.8877 111.71 73.1753 111.71 73.4559C111.71 73.7364 111.654 73.9399 111.528 74.0661C109.524 76.5493 107.036 78.1907 104.069 78.9973C103.085 82.9675 100.835 84.9596 97.3345 84.9596ZM98.0024 82.0837C98.7827 82.0837 99.5067 81.6558 100.182 80.786C100.856 79.9162 101.236 79.0534 101.327 78.1836C100.217 77.7066 99.6684 77.0894 99.6684 76.3458C99.6684 75.6023 100.055 74.8517 100.835 74.1012C100.8 73.7084 100.709 73.4278 100.54 73.2524C100.371 73.0701 100.139 72.9859 99.8442 72.9859C98.7053 72.9859 97.7282 73.6523 96.9268 74.978C96.1184 76.3108 95.7177 77.6856 95.7177 79.1236C95.7177 81.0947 96.4769 82.0767 98.0094 82.0767L98.0024 82.0837Z" fill="#39B8C1"/>
<path d="M111.478 84.9596C109.981 84.9596 108.751 84.4195 107.795 83.3463C106.832 82.2731 106.361 80.9263 106.361 79.313C106.361 76.8649 107.162 74.6904 108.765 72.7965C110.368 70.9026 112.245 69.9556 114.403 69.9556C115.661 69.9556 116.716 70.4046 117.566 71.2954C118.417 72.1933 118.846 73.3296 118.846 74.6974C118.846 74.9991 118.789 75.476 118.663 76.1284C120.61 75.7706 121.89 75.455 123.809 73.3015C123.928 73.1823 124.083 73.1192 124.28 73.1192C124.477 73.1192 124.673 73.2665 124.884 73.547C125.095 73.8276 125.201 74.1152 125.201 74.4028C125.201 74.6904 125.144 74.8868 125.018 75.0061C123.014 77.4892 121.173 78.1907 118.213 78.9973C117.229 82.9675 114.979 84.9596 111.478 84.9596ZM112.153 82.0837C112.934 82.0837 113.658 81.6558 114.333 80.786C115.007 79.9162 115.387 79.0534 115.478 78.1836C114.368 77.7066 113.819 77.0894 113.819 76.3458C113.819 75.6023 114.206 74.8517 114.986 74.1012C114.951 73.7084 114.86 73.4278 114.691 73.2524C114.522 73.0701 114.29 72.9859 113.995 72.9859C112.856 72.9859 111.879 73.6523 111.078 74.978C110.269 76.3108 109.869 77.6856 109.869 79.1236C109.869 81.0947 110.635 82.0767 112.16 82.0767L112.153 82.0837Z" fill="#39B8C1"/>
<path d="M129.264 82.4064C129.264 80.9193 129.819 78.0433 130.923 73.7996C129.158 76.3388 127.52 79.1166 126.03 82.1328C125.643 82.9395 125.271 83.5427 124.933 83.9496C124.589 84.3564 124.329 84.5809 124.146 84.644C123.97 84.7001 123.717 84.7352 123.38 84.7352C122.213 84.7352 121.629 83.7952 121.629 81.9153C121.629 78.4502 122.213 74.971 123.38 71.4708C123.71 70.4537 124.28 69.9486 125.088 69.9486C125.39 69.9486 125.658 70.0398 125.897 70.2152C126.136 70.3975 126.255 70.601 126.255 70.8465C126.255 71.092 126.241 71.2533 126.213 71.3445C125.468 73.7645 124.912 76.5282 124.554 79.6356C125.875 76.3528 127.19 73.9328 128.512 72.3756C129.833 70.8184 130.965 70.0398 131.928 70.0398C132.35 70.0398 132.722 70.159 133.046 70.3975C133.376 70.636 133.545 70.9657 133.545 71.3796C133.545 72.7544 133.067 75.3217 132.111 79.0885C134.417 73.021 136.821 69.9907 139.345 69.9907C140.687 69.9907 141.369 70.6641 141.369 72.0109C141.369 72.8807 141.004 74.3467 140.272 76.423C139.534 78.4993 139.176 80.0916 139.176 81.1929C139.176 81.9715 139.534 82.3573 140.251 82.3573C140.462 82.3573 140.61 82.3432 140.701 82.3152C141.482 82.1328 142.859 81.0876 144.835 79.1797C144.954 79.0604 145.13 78.9973 145.376 78.9973C145.622 78.9973 145.896 79.1376 146.206 79.4252C146.522 79.7058 146.677 79.9232 146.677 80.0565C146.677 80.1898 146.641 80.316 146.585 80.4423C145.622 81.761 144.448 82.8202 143.056 83.6199C141.664 84.4265 140.455 84.8264 139.443 84.8264H139.352C138.389 84.8264 137.643 84.5318 137.102 83.9566C136.561 83.3744 136.294 82.6378 136.294 81.733V81.3261C136.441 79.9513 137.116 77.3699 138.318 73.5751C136.997 74.6834 135.134 77.9031 132.701 83.2551C132.223 84.2371 131.668 84.7352 131.042 84.7352C129.875 84.7352 129.292 83.9566 129.292 82.3993H129.271L129.264 82.4064Z" fill="#39B8C1"/>
</g>
<defs>
<clipPath id="clip0_1_3">
<rect width="147" height="89" fill="white"/>
</clipPath>
</defs>
</svg>
