<?xml version="1.0" encoding="UTF-8"?>
<svg id="Capa_1" xmlns="http://www.w3.org/2000/svg" version="1.1" viewBox="0 0 311.4 46.2">
  <!-- Generator: Adobe Illustrator 29.1.0, SVG Export Plug-In . SVG Version: 2.1.0 Build 142)  -->
  <defs>
    <style>
      .st0 {
        stroke: #2f9096;
      }

      .st0, .st1, .st2, .st3 {
        fill: none;
        stroke-miterlimit: 10;
        stroke-width: 1.2px;
      }

      .st4 {
        fill: #ef775a;
      }

      .st5 {
        fill: #fbcf63;
      }

      .st6 {
        fill: #39b8c1;
      }

      .st1 {
        stroke: #b3395e;
      }

      .st2 {
        stroke: #c0a04d;
      }

      .st3 {
        stroke: #b95e47;
      }

      .st7 {
        fill: #e84678;
      }
    </style>
  </defs>
  <g>
    <path class="st6" d="M12.2,39.8h-6.6c-2,0-3.6-1.6-3.6-3.6s1.6-3.6,3.6-3.6h6.6c5,0,9-4.1,9-9s-4.1-9-9-9h-6.6c-2,0-3.6-1.6-3.6-3.6s1.6-3.6,3.6-3.6h6.6c9,0,16.3,7.3,16.3,16.2s-7.3,16.2-16.3,16.2h0Z"/>
    <path class="st0" d="M12.2,39.8h-6.6c-2,0-3.6-1.6-3.6-3.6s1.6-3.6,3.6-3.6h6.6c5,0,9-4.1,9-9s-4.1-9-9-9h-6.6c-2,0-3.6-1.6-3.6-3.6s1.6-3.6,3.6-3.6h6.6c9,0,16.3,7.3,16.3,16.2s-7.3,16.2-16.3,16.2h0Z"/>
    <path class="st7" d="M67.4,7.1c-1.7,0-3.3.4-4.7,1.1-.7-.7-1.6-1.2-2.7-1.2-2,0-3.6,1.6-3.6,3.6v25.9c0,2,1.6,3.6,3.6,3.6s3.6-1.6,3.6-3.6v-18.4c0-2.1,1.7-3.7,3.8-3.7s3.8,1.7,3.8,3.7v18.4c0,2,1.6,3.6,3.6,3.6s3.6-1.6,3.6-3.6v-18.4c0-6-4.9-11-11-11Z"/>
    <path class="st1" d="M67.4,7.1c-1.7,0-3.3.4-4.7,1.1-.7-.7-1.6-1.2-2.7-1.2-2,0-3.6,1.6-3.6,3.6v25.9c0,2,1.6,3.6,3.6,3.6s3.6-1.6,3.6-3.6v-18.4c0-2.1,1.7-3.7,3.8-3.7s3.8,1.7,3.8,3.7v18.4c0,2,1.6,3.6,3.6,3.6s3.6-1.6,3.6-3.6v-18.4c0-6-4.9-11-11-11ZM67.4,7.1h0"/>
    <path class="st5" d="M92.4,7.1c-6.1,0-11,4.9-11,11v18.4c0,2,1.6,3.6,3.6,3.6s3.6-1.6,3.6-3.6v-9.7h7.5v9.7c0,2,1.6,3.6,3.6,3.6s3.6-1.6,3.6-3.6v-18.4c0-6-4.9-11-11-11ZM88.7,19.5v-1.5c0-2.1,1.7-3.7,3.8-3.7s3.8,1.7,3.8,3.7v1.5h-7.5Z"/>
    <path class="st2" d="M92.4,7.1c-6.1,0-11,4.9-11,11v18.4c0,2,1.6,3.6,3.6,3.6s3.6-1.6,3.6-3.6v-9.7h7.5v9.7c0,2,1.6,3.6,3.6,3.6s3.6-1.6,3.6-3.6v-18.4c0-6-4.9-11-11-11ZM88.7,19.5v-1.5c0-2.1,1.7-3.7,3.8-3.7s3.8,1.7,3.8,3.7v1.5h-7.5Z"/>
    <path class="st4" d="M49.2,7.1c-2,0-3.6,1.6-3.6,3.6v11.2c0,2.1-1.7,3.7-3.8,3.7s-3.8-1.7-3.8-3.7v-11.2c0-2-1.6-3.6-3.6-3.6s-3.6,1.6-3.6,3.6v11.2c0,4.8,3.1,8.8,7.4,10.3v4.2c0,2,1.6,3.6,3.6,3.6s3.6-1.6,3.6-3.6v-4.2c4.3-1.5,7.4-5.6,7.4-10.3v-11.2c0-2-1.6-3.6-3.6-3.6h0,0Z"/>
    <path class="st3" d="M45.6,10.7v11.1c0,1.8-1.2,3.4-3,3.8s-4.5-1.3-4.5-3.7v-11c0-2-1.5-3.7-3.4-3.8s-3.8,1.5-3.8,3.6v11.2c0,4.8,3.1,8.8,7.4,10.3v4c0,2,1.5,3.7,3.4,3.8s3.8-1.5,3.8-3.6v-4.2c4.3-1.5,7.4-5.6,7.4-10.3v-11.2c0-2-1.4-3.6-3.6-3.6s-3.6,1.6-3.6,3.6Z"/>
    <path class="st6" d="M11.6,26.9c2,0,3.6-1.6,3.6-3.6s-1.6-3.6-3.6-3.6-3.6,1.6-3.6,3.6,1.6,3.6,3.6,3.6Z"/>
    <path class="st0" d="M11.6,26.9c2,0,3.6-1.6,3.6-3.6s-1.6-3.6-3.6-3.6-3.6,1.6-3.6,3.6,1.6,3.6,3.6,3.6Z"/>
  </g>
  <g>
    <polygon class="st6" points="199.8 38.8 199.8 38.8 199.8 38.8 199.8 38.8"/>
    <path class="st6" d="M306.8,32c-.4-.4-.7-.5-1-.5s-.5,0-.7.2c-2.4,2.3-4.1,3.6-5.1,3.8-.1,0-.3,0-.6,0-.9,0-1.3-.5-1.3-1.4,0-1.4.4-3.3,1.3-5.9.9-2.5,1.3-4.3,1.3-5.4,0-1.7-.8-2.5-2.5-2.5-3.1,0-6,3.7-8.9,11.2,1.2-4.6,1.8-7.8,1.8-9.5s-.2-.9-.6-1.2c-.4-.3-.9-.4-1.4-.4-1.2,0-2.6,1-4.2,2.9-1.6,1.9-3.2,4.9-4.9,8.9.4-3.8,1.1-7.2,2-10.2,0-.1,0-.3,0-.6s-.1-.6-.4-.8c-.3-.2-.6-.3-1-.3-1,0-1.7.6-2.1,1.9-.4,1.3-.8,2.5-1.1,3.8-1.6,1.3-2.9,1.6-4.7,1.9.2-.8.2-1.4.2-1.8,0-1.7-.5-3.1-1.6-4.2-1-1.1-2.3-1.6-3.9-1.6-2.6,0-4.9,1.2-6.9,3.5-.7.8-1.3,1.7-1.7,2.7-1.1.7-2.3,1.2-3.5,1.4.2-.8.2-1.4.2-1.8,0-1.7-.5-3.1-1.6-4.2-1-1.1-2.3-1.6-3.9-1.6-2.6,0-4.9,1.2-6.9,3.5-.7.9-1.3,1.8-1.8,2.8-1.4.8-2.4,1.2-3.1,1.2s-1.2-.3-1.2-.8.2-.8.6-1.9c.4-1,.6-2,.6-2.8,0-1.2-.8-1.9-2.4-1.9s-2.6,1.3-4.4,4c-1.7,2.5-2.9,4.7-3.6,6.7,0,0,0,0,0,0,0,0,0,0,0,0l2-9.1c0-.4-.1-.8-.4-1.1-.3-.3-.7-.4-1.2-.4-1.2,0-2.1.8-2.6,2.5-1,3.3-1.5,6.6-1.6,10-1.2,1.1-2.3,1.8-3.4,2.2.4-.7.6-1.4.6-2.3s-.4-2-1.2-3.2c-.8-1.2-1.6-2.3-2.4-3.3-.8-1-1.2-1.7-1.2-2s.1-.7.3-1.1c.2-.4.3-.8.3-1.3s-.2-1-.6-1.4c-.4-.4-.9-.5-1.4-.5-1.1,0-1.9.6-2.5,1.7-2.5,5.2-4.6,9.2-6.2,11.9-.6.7-1.2,1.2-1.9,1.5.4-.7.6-1.4.6-2.3s-.4-2-1.2-3.2c-.8-1.2-1.6-2.3-2.4-3.3-.8-1-1.2-1.7-1.2-2s.1-.7.3-1.1c.2-.4.3-.8.3-1.3s-.2-1-.6-1.4c-.4-.4-.9-.5-1.4-.5-1.1,0-1.9.6-2.5,1.7-2.3,4.6-4.1,8.3-5.6,11-1.3,1.4-2.5,2-3.6,2s-.9-.4-.9-1.3,0-.5,0-.6l1.5-9.5v-.3c0-1-.5-1.4-1.5-1.4h-1.3v-.3c0-.8-.8-1.2-2.3-1.2-2.7,0-5.2,1.3-7.6,3.9-2.2,2.4-3.3,5.1-3.5,8-2,2.1-3.9,3.2-5.5,3.2s-2.6-1.5-2.6-4.5,0-1.5.2-2.7c3.2-2.5,6.1-5.8,8.8-9.8,2.6-4,4.1-7.9,4.5-11.6v-.4c0-1.1-.3-2-1-2.7-.7-.7-1.6-1.1-2.6-1.1-1.9,0-3.7.9-5.3,2.7-1.7,1.8-3.1,4.1-4.2,6.8-2.3,5.7-3.7,11.2-4.2,16.5-2.2,2.9-6.4,7.1-8.6,8.5-2.6,1.7-5.5,2.5-8.7,2.5s-5.6-1.1-7.3-3.4c-1.7-2.3-2.5-5.5-2.5-9.6s1.6-10.4,4.9-14.5c3.3-4.1,6.9-6.2,10.9-6.2s2.9.4,3.9,1.1c.9.7,1.4,1.9,1.4,3.5s-.6,3.1-1.9,4.3c-1.3,1.2-2.9,2.2-5,2.8-1.4.4-2.2.7-2.6,1-.4.3-.6.7-.6,1.1,0,1.1.7,1.6,2,1.6s.6,0,1.2-.1c3.3-.6,5.9-2,8-4,2.1-2.1,3.1-4.4,3.1-7.1s-.8-4.8-2.4-6.2c-1.6-1.4-3.8-2.2-6.6-2.2s-5.4.6-8,1.9c-2.6,1.3-4.9,3-6.9,5.2-2,2.2-3.6,4.9-4.8,8.1-1.2,3.2-1.8,6.7-1.8,10.3h0c0,5.5,1.3,9.6,4,12.4,2.7,2.8,6,4.2,10,4.2s7.7-1,11.2-3.2c2.1-1.3,5-4.1,7.4-6.9.2,1.1.6,2,1.1,2.8,1,1.5,2.4,2.2,4.2,2.2h0c2.4,0,4.8-.9,7-2.8.2.4.4.8.7,1.2.9,1.1,2.1,1.7,3.6,1.7s2.7-.3,3.8-1c1-.7,1.9-1.6,2.5-2.8h0c.1,1,.6,1.9,1.2,2.5.7.6,1.6,1,2.9,1s2.5-.5,3.9-1.5c.3-.2.6-.5,1-.7.5.4,1.1.8,1.7,1.1,1.7.9,3.7,1.3,6,1.3h0c3,0,5.6-.5,7.8-1.5.4-.2.7-.4,1-.7.4.3.8.6,1.3.8,1.7.9,3.7,1.3,6,1.3h0c3,0,5.6-.5,7.8-1.5.3-.1.5-.3.8-.4.3,1.1,1,1.6,2,1.6s1.9-.5,2.4-1.4c1.7-4.5,3.3-8.2,5.1-11,.6-.9.8-1.3.9-1.3-.6,2.3-.9,3.5-.9,3.6,0,2.1,1.2,3.2,3.7,3.2s2-.2,3-.7c0,.3,0,.7,0,1,0,2,.6,3.6,1.8,4.9,1.2,1.3,2.7,2,4.5,2,4.3,0,7.1-2.4,8.3-7.3,1-.3,2-.6,2.9-1.1,0,.5,0,1,0,1.5,0,2,.6,3.6,1.8,4.9,1.2,1.3,2.7,2,4.5,2,4.3,0,7.1-2.4,8.3-7.3,1.8-.5,3.3-1,4.6-1.7-.2,1.8-.4,3.5-.4,5.2s.7,3.5,2.1,3.5.7,0,.9-.1c.2,0,.5-.4,1-.9.4-.5.9-1.2,1.3-2.2,1.8-3.7,3.8-7.1,6-10.2-1.4,5.2-2,8.7-2,10.6h0s0,0,0,0c0,1.9.7,2.9,2.1,2.9s1.4-.6,2-1.8c3-6.6,5.3-10.5,6.9-11.9-1.5,4.7-2.3,7.8-2.5,9.5v.5c0,1.1.3,2,1,2.7.7.7,1.6,1.1,2.8,1.1h.1c1.2,0,2.7-.5,4.4-1.5,1.7-1,3.1-2.3,4.3-3.9,0-.2.1-.3.1-.5s-.2-.4-.6-.8ZM167.8,12.9c1.6-3.9,3.1-5.9,4.7-5.9s.9.4.9,1.1c0,2-1,4.6-2.8,7.7-1.8,3.1-3.8,5.8-6,8.2.5-3.5,1.6-7.2,3.2-11.2ZM182.9,29.7c-.3,1.3-.9,2.5-1.8,3.6-.9,1.1-1.8,1.6-2.8,1.6h0c-1.4,0-2.1-.9-2.1-2.7s.8-3.7,2.5-5.7c1.7-2,3.6-3,5.7-3l-1.5,6.2ZM198.7,35.7h-.2,0c-.9,0-2-.5-3.3-1.5l3.6-7.4c1.8,2.6,2.6,4.7,2.6,6.4s-.9,2.5-2.8,2.5ZM214.8,35.7h-.2,0c-.9,0-2-.5-3.3-1.5l3.6-7.4c1.8,2.6,2.6,4.7,2.6,6.4s-.9,2.5-2.8,2.5ZM250.3,33.7c-.8,1.1-1.7,1.6-2.7,1.6h0c-1.9,0-2.8-1.2-2.8-3.6s.5-3.5,1.5-5.1c1-1.6,2.2-2.4,3.6-2.4s.6.1.9.3c.2.2.3.6.4,1-1,.9-1.4,1.8-1.4,2.8s.7,1.7,2,2.3c-.1,1.1-.6,2.1-1.4,3.2ZM267.7,33.7c-.8,1.1-1.7,1.6-2.7,1.6h0c-1.9,0-2.8-1.2-2.8-3.6s.5-3.5,1.5-5.1c1-1.6,2.2-2.4,3.6-2.4s.6.1.9.3c.2.2.3.6.4,1-1,.9-1.4,1.8-1.4,2.8s.7,1.7,2,2.3c-.1,1.1-.6,2.1-1.4,3.2Z"/>
  </g>
</svg>