<svg viewBox="0 0 100 100" xmlns="http://www.w3.org/2000/svg"><path d="m41.6 94.5h-18.1c-5.5 0-9.9-4.4-9.9-9.9s4.4-9.9 9.9-9.9h18.1c13.7 0 24.7-11.3 24.7-24.7s-11.3-24.7-24.7-24.7h-18.1c-5.5 0-9.9-4.4-9.9-9.9s4.4-9.9 9.9-9.9h18.1c24.7 0 44.7 20 44.7 44.5s-20 44.5-44.7 44.5z" fill="#39b8c1"/><path d="m41.6 94.5h-18.1c-5.5 0-9.9-4.4-9.9-9.9s4.4-9.9 9.9-9.9h18.1c13.7 0 24.7-11.3 24.7-24.7s-11.3-24.7-24.7-24.7h-18.1c-5.5 0-9.9-4.4-9.9-9.9s4.4-9.9 9.9-9.9h18.1c24.7 0 44.7 20 44.7 44.5s-20 44.5-44.7 44.5z" fill="none" stroke="#2f9096" stroke-miterlimit="10" stroke-width="3.3"/><path d="m40 59.1c5.5 0 9.9-4.4 9.9-9.9s-4.4-9.9-9.9-9.9-9.9 4.4-9.9 9.9 4.4 9.9 9.9 9.9z" fill="#39b8c1"/><path d="m40 59.1c5.5 0 9.9-4.4 9.9-9.9s-4.4-9.9-9.9-9.9-9.9 4.4-9.9 9.9 4.4 9.9 9.9 9.9z" fill="none" stroke="#2f9096" stroke-miterlimit="10" stroke-width="3.3"/></svg>