<svg enable-background="new 0 0 51.6 53.6" viewBox="0 0 51.6 53.6" xmlns="http://www.w3.org/2000/svg"><path d="m29.2 3.9 19.4 15.5c1.4 1.1 2.2 2.8 2.2 4.5 0 4.9-5.6 7.6-9.4 4.5l-12.1-9.7c-2.1-1.7-5.1-1.7-7.3 0l-11.7 9.5c-3.8 3.1-9.4.4-9.4-4.5 0-1.8.8-3.4 2.2-4.5l18.9-15.3c2.1-1.7 5.1-1.7 7.2 0z" fill="#e84678"/><path d="m29.2 25.7 19.4 15.5c1.4 1.1 2.2 2.8 2.2 4.5 0 4.9-5.6 7.6-9.4 4.5l-12.1-9.7c-2.1-1.7-5.1-1.7-7.3 0l-11.7 9.5c-3.8 3.1-9.4.4-9.4-4.5 0-1.8.8-3.4 2.2-4.5l19-15.4c2-1.6 5-1.6 7.1.1z" fill="#ef775a"/></svg>